<svg width="727.000000" height="214.000000" viewBox="0 0 727 214" fill="none" xmlns="http://www.w3.org/2000/svg" xmlns:xlink="http://www.w3.org/1999/xlink">
	<path id="path" d="M716.12 146.07L716.12 208.23C716.12 211.12 718.46 213.46 721.34 213.46C724.23 213.46 726.57 211.12 726.57 208.23L726.57 141.54C726.57 140.9 726.33 140.29 725.89 139.84L678.93 90.71C678.02 89.76 676.55 89.76 675.64 90.71L628.67 139.84C628.24 140.29 628 140.9 628 141.54L628 211.64C628 212.64 628.77 213.46 629.74 213.46L682.75 213.46C683.71 213.46 684.49 212.64 684.49 211.64L684.49 178.84C684.49 177.94 684.99 177.12 685.76 176.7C690.29 174.24 693.38 169.3 693.38 163.59C693.38 158.51 690.93 154.03 687.19 151.38C686.05 150.56 684.49 151.45 684.49 152.9L684.49 165.06C684.49 166.06 683.71 166.88 682.75 166.88L675.78 166.88C674.82 166.88 674.04 166.07 674.04 165.06L674.04 152.9C674.04 151.45 672.48 150.56 671.34 151.38C667.6 154.03 665.15 158.51 665.15 163.59C665.15 169.3 668.25 174.24 672.77 176.7C673.54 177.12 674.04 177.93 674.04 178.84L674.04 200.7C674.04 201.7 673.26 202.52 672.3 202.52L640.19 202.52C639.23 202.52 638.45 201.71 638.45 200.7L638.45 146.08C638.45 145.44 638.69 144.82 639.13 144.37L675.64 106.17C676.55 105.23 678.02 105.23 678.93 106.17L715.44 144.37C715.87 144.82 716.12 145.43 716.12 146.07Z" fill="#BA0000" fill-opacity="1.000000" fill-rule="evenodd"/>
	<path id="path" d="M437.07 146.61L437.07 208.77C437.07 211.66 439.41 214 442.29 214C445.18 214 447.52 211.66 447.52 208.77L447.52 142.08C447.52 141.44 447.28 140.83 446.84 140.38L399.88 91.24C398.97 90.3 397.5 90.3 396.59 91.24L349.62 140.38C349.19 140.83 348.94 141.44 348.94 142.08L348.94 212.17C348.94 213.18 349.72 214 350.69 214L403.7 214C404.66 214 405.44 213.18 405.44 212.17L405.44 179.38C405.44 178.47 405.94 177.66 406.71 177.24C411.24 174.78 414.33 169.83 414.33 164.13C414.33 159.05 411.88 154.57 408.14 151.91C407 151.1 405.44 151.99 405.44 153.44L405.44 165.6C405.44 166.6 404.66 167.42 403.7 167.42L396.73 167.42C395.77 167.42 394.99 166.6 394.99 165.6L394.99 153.44C394.99 151.99 393.43 151.1 392.29 151.91C388.55 154.57 386.1 159.05 386.1 164.13C386.1 169.83 389.2 174.78 393.72 177.24C394.49 177.66 394.99 178.47 394.99 179.38L394.99 201.24C394.99 202.24 394.21 203.06 393.25 203.06L361.14 203.06C360.18 203.06 359.4 202.25 359.4 201.24L359.4 146.61C359.4 145.97 359.64 145.36 360.08 144.91L396.59 106.71C397.5 105.76 398.97 105.76 399.88 106.71L436.39 144.9C436.82 145.36 437.07 145.97 437.07 146.61Z" fill="#BA0000" fill-opacity="1.000000" fill-rule="evenodd"/>
	<path id="path" d="M157.77 146.61L157.77 208.77C157.77 211.66 160.11 214 162.99 214C165.88 214 168.22 211.66 168.22 208.77L168.22 142.08C168.22 141.44 167.98 140.83 167.54 140.38L120.58 91.24C119.67 90.3 118.2 90.3 117.29 91.24L70.32 140.38C69.89 140.83 69.64 141.44 69.64 142.08L69.64 212.17C69.64 213.18 70.42 214 71.39 214L124.4 214C125.36 214 126.14 213.18 126.14 212.17L126.14 179.38C126.14 178.47 126.64 177.66 127.41 177.24C131.94 174.78 135.03 169.83 135.03 164.13C135.03 159.05 132.58 154.57 128.84 151.91C127.7 151.1 126.14 151.99 126.14 153.44L126.14 165.6C126.14 166.6 125.36 167.42 124.4 167.42L117.43 167.42C116.47 167.42 115.69 166.6 115.69 165.6L115.69 153.44C115.69 151.99 114.13 151.1 112.99 151.91C109.25 154.57 106.8 159.05 106.8 164.13C106.8 169.83 109.9 174.78 114.42 177.24C115.19 177.66 115.69 178.47 115.69 179.38L115.69 201.24C115.69 202.24 114.91 203.06 113.95 203.06L81.84 203.06C80.88 203.06 80.1 202.25 80.1 201.24L80.1 146.61C80.1 145.97 80.34 145.36 80.78 144.91L117.29 106.71C118.2 105.76 119.67 105.76 120.58 106.71L157.09 144.9C157.52 145.36 157.77 145.97 157.77 146.61Z" fill="#BA0000" fill-opacity="1.000000" fill-rule="evenodd"/>
	<path id="path" d="M576.72 146.61L576.72 208.77C576.72 211.66 579.06 214 581.94 214C584.83 214 587.17 211.66 587.17 208.77L587.17 142.08C587.17 141.44 586.93 140.83 586.49 140.38L539.53 91.24C538.62 90.3 537.15 90.3 536.24 91.24L489.27 140.38C488.84 140.83 488.59 141.44 488.59 142.08L488.59 212.17C488.59 213.18 489.37 214 490.34 214L543.35 214C544.31 214 545.09 213.18 545.09 212.17L545.09 179.38C545.09 178.47 545.59 177.66 546.36 177.24C550.88 174.78 553.98 169.83 553.98 164.13C553.98 159.05 551.53 154.57 547.79 151.91C546.65 151.1 545.09 151.99 545.09 153.44L545.09 165.6C545.09 166.6 544.31 167.42 543.35 167.42L536.38 167.42C535.42 167.42 534.64 166.6 534.64 165.6L534.64 153.44C534.64 151.99 533.08 151.1 531.93 151.91C528.2 154.57 525.75 159.05 525.75 164.13C525.75 169.83 528.84 174.78 533.37 177.24C534.14 177.66 534.64 178.47 534.64 179.38L534.64 201.24C534.64 202.24 533.86 203.06 532.9 203.06L500.79 203.06C499.83 203.06 499.05 202.25 499.05 201.24L499.05 146.61C499.05 145.97 499.29 145.36 499.73 144.91L536.24 106.71C537.15 105.76 538.62 105.76 539.53 106.71L576.04 144.9C576.47 145.36 576.71 145.97 576.72 146.61Z" fill="#BA0000" fill-opacity="1.000000" fill-rule="evenodd"/>
	<path id="path" d="M297.42 146.61L297.42 208.77C297.42 211.66 299.76 214 302.64 214C305.53 214 307.87 211.66 307.87 208.77L307.87 142.08C307.87 141.44 307.63 140.83 307.19 140.38L260.23 91.24C259.32 90.3 257.85 90.3 256.94 91.24L209.97 140.38C209.54 140.83 209.29 141.44 209.29 142.08L209.29 212.17C209.29 213.18 210.07 214 211.04 214L264.05 214C265.01 214 265.79 213.18 265.79 212.17L265.79 179.38C265.79 178.47 266.29 177.66 267.06 177.24C271.59 174.78 274.68 169.83 274.68 164.13C274.68 159.05 272.23 154.57 268.49 151.91C267.35 151.1 265.79 151.99 265.79 153.44L265.79 165.6C265.79 166.6 265.01 167.42 264.05 167.42L257.08 167.42C256.12 167.42 255.34 166.6 255.34 165.6L255.34 153.44C255.34 151.99 253.78 151.1 252.64 151.91C248.9 154.57 246.45 159.05 246.45 164.13C246.45 169.83 249.55 174.78 254.07 177.24C254.84 177.66 255.34 178.47 255.34 179.38L255.34 201.24C255.34 202.24 254.56 203.06 253.6 203.06L221.49 203.06C220.53 203.06 219.75 202.25 219.75 201.24L219.75 146.61C219.75 145.97 219.99 145.36 220.43 144.91L256.94 106.71C257.85 105.76 259.32 105.76 260.23 106.71L296.74 144.9C297.17 145.36 297.42 145.97 297.42 146.61Z" fill="#BA0000" fill-opacity="1.000000" fill-rule="evenodd"/>
	<path id="path" d="M87.94 67.38L87.94 5.22C87.94 2.33 90.28 0 93.17 0C96.06 0 98.4 2.33 98.4 5.22L98.4 71.91C98.4 72.55 98.15 73.16 97.72 73.62L50.75 122.75C49.85 123.69 48.37 123.69 47.47 122.75L0.49 73.62C0.06 73.16 -0.18 72.55 -0.18 71.91L-0.18 1.82C-0.18 0.81 0.6 0 1.56 0L54.57 0C55.53 0 56.31 0.81 56.31 1.82L56.31 34.61C56.31 35.52 56.81 36.33 57.58 36.75C62.11 39.21 65.2 44.16 65.2 49.86C65.2 54.94 62.75 59.42 59.02 62.08C57.87 62.89 56.32 62.01 56.32 60.55L56.32 48.39C56.32 47.39 55.54 46.57 54.57 46.57L47.6 46.57C46.64 46.57 45.86 47.39 45.86 48.39L45.86 60.55C45.86 62.01 44.31 62.89 43.16 62.08C39.43 59.42 36.98 54.94 36.98 49.86C36.98 44.16 40.07 39.21 44.6 36.75C45.37 36.33 45.87 35.52 45.87 34.61L45.87 12.75C45.87 11.75 45.09 10.93 44.12 10.93L12.02 10.93C11.06 10.93 10.28 11.75 10.28 12.75L10.28 67.38C10.28 68.02 10.52 68.63 10.95 69.08L47.47 107.28C48.37 108.23 49.85 108.23 50.75 107.28L87.27 69.09C87.7 68.63 87.94 68.02 87.94 67.38Z" fill="#BA0000" fill-opacity="1.000000" fill-rule="evenodd"/>
	<path id="path" d="M506.89 67.38L506.89 5.22C506.89 2.33 509.23 0 512.12 0C515.01 0 517.34 2.33 517.34 5.22L517.34 71.91C517.34 72.55 517.1 73.16 516.67 73.62L469.7 122.75C468.8 123.69 467.32 123.69 466.42 122.75L419.44 73.62C419.01 73.16 418.77 72.55 418.77 71.91L418.77 1.82C418.77 0.81 419.55 0 420.51 0L473.52 0C474.48 0 475.26 0.81 475.26 1.82L475.26 34.61C475.26 35.52 475.76 36.33 476.53 36.75C481.06 39.21 484.15 44.16 484.15 49.86C484.15 54.94 481.7 59.42 477.97 62.08C476.82 62.89 475.27 62.01 475.27 60.55L475.27 48.39C475.27 47.39 474.49 46.57 473.52 46.57L466.55 46.57C465.59 46.57 464.81 47.39 464.81 48.39L464.81 60.55C464.81 62.01 463.26 62.89 462.11 62.08C458.38 59.42 455.93 54.94 455.93 49.86C455.93 44.16 459.02 39.21 463.55 36.75C464.32 36.33 464.81 35.52 464.81 34.61L464.81 12.75C464.81 11.75 464.04 10.93 463.07 10.93L430.97 10.93C430 10.93 429.23 11.75 429.23 12.75L429.23 67.38C429.23 68.02 429.47 68.63 429.9 69.08L466.42 107.28C467.32 108.23 468.8 108.23 469.7 107.28L506.22 69.09C506.65 68.63 506.89 68.02 506.89 67.38Z" fill="#BA0000" fill-opacity="1.000000" fill-rule="evenodd"/>
	<path id="path" d="M227.59 67.38L227.59 5.22C227.59 2.33 229.93 0 232.82 0C235.71 0 238.05 2.33 238.05 5.22L238.05 71.91C238.05 72.55 237.8 73.16 237.37 73.62L190.4 122.75C189.5 123.69 188.02 123.69 187.12 122.75L140.14 73.62C139.71 73.16 139.47 72.55 139.47 71.91L139.47 1.82C139.47 0.81 140.25 0 141.21 0L194.22 0C195.18 0 195.96 0.81 195.96 1.82L195.96 34.61C195.96 35.52 196.46 36.33 197.23 36.75C201.76 39.21 204.85 44.16 204.85 49.86C204.85 54.94 202.4 59.42 198.67 62.08C197.52 62.89 195.97 62.01 195.97 60.55L195.97 48.39C195.97 47.39 195.19 46.57 194.22 46.57L187.25 46.57C186.29 46.57 185.51 47.39 185.51 48.39L185.51 60.55C185.51 62.01 183.96 62.89 182.81 62.08C179.08 59.42 176.63 54.94 176.63 49.86C176.63 44.16 179.72 39.21 184.25 36.75C185.02 36.33 185.52 35.52 185.52 34.61L185.52 12.75C185.52 11.75 184.74 10.93 183.77 10.93L151.67 10.93C150.71 10.93 149.92 11.75 149.92 12.75L149.92 67.38C149.92 68.02 150.17 68.63 150.6 69.08L187.12 107.28C188.02 108.23 189.5 108.23 190.4 107.28L226.92 69.09C227.35 68.63 227.59 68.02 227.59 67.38Z" fill="#BA0000" fill-opacity="1.000000" fill-rule="evenodd"/>
	<path id="path" d="M646.12 67.38L646.12 5.22C646.12 2.33 648.46 0 651.34 0C654.23 0 656.57 2.33 656.57 5.22L656.57 71.91C656.57 72.55 656.33 73.16 655.89 73.62L608.93 122.75C608.02 123.69 606.55 123.69 605.64 122.75L558.67 73.62C558.24 73.16 558 72.55 558 71.91L558 1.82C558 0.81 558.77 0 559.74 0L612.75 0C613.71 0 614.49 0.81 614.49 1.82L614.49 34.61C614.49 35.52 614.99 36.33 615.76 36.75C620.29 39.21 623.38 44.16 623.38 49.86C623.38 54.94 620.93 59.42 617.19 62.08C616.05 62.89 614.49 62.01 614.49 60.55L614.49 48.39C614.49 47.39 613.71 46.57 612.75 46.57L605.78 46.57C604.82 46.57 604.04 47.39 604.04 48.39L604.04 60.55C604.04 62.01 602.48 62.89 601.34 62.08C597.6 59.42 595.15 54.94 595.15 49.86C595.15 44.16 598.25 39.21 602.77 36.75C603.54 36.33 604.04 35.52 604.04 34.61L604.04 12.75C604.04 11.75 603.26 10.93 602.3 10.93L570.19 10.93C569.23 10.93 568.45 11.75 568.45 12.75L568.45 67.38C568.45 68.02 568.69 68.63 569.13 69.08L605.64 107.28C606.55 108.23 608.02 108.23 608.93 107.28L645.44 69.09C645.87 68.63 646.12 68.02 646.12 67.38Z" fill="#BA0000" fill-opacity="1.000000" fill-rule="evenodd"/>
	<path id="path" d="M367.24 67.38L367.24 5.22C367.24 2.33 369.58 0 372.47 0C375.36 0 377.7 2.33 377.7 5.22L377.7 71.91C377.7 72.55 377.45 73.16 377.02 73.62L330.05 122.75C329.15 123.69 327.67 123.69 326.76 122.75L279.79 73.62C279.36 73.16 279.12 72.55 279.12 71.91L279.12 1.82C279.12 0.81 279.9 0 280.86 0L333.87 0C334.83 0 335.61 0.81 335.61 1.82L335.61 34.61C335.61 35.52 336.11 36.33 336.88 36.75C341.41 39.21 344.5 44.16 344.5 49.86C344.5 54.94 342.05 59.42 338.32 62.08C337.17 62.89 335.62 62.01 335.62 60.55L335.62 48.39C335.62 47.39 334.84 46.57 333.87 46.57L326.9 46.57C325.94 46.57 325.16 47.39 325.16 48.39L325.16 60.55C325.16 62.01 323.61 62.89 322.46 62.08C318.73 59.42 316.28 54.94 316.28 49.86C316.28 44.16 319.37 39.21 323.9 36.75C324.67 36.33 325.17 35.52 325.17 34.61L325.17 12.75C325.17 11.75 324.39 10.93 323.42 10.93L291.32 10.93C290.35 10.93 289.57 11.75 289.57 12.75L289.57 67.38C289.57 68.02 289.82 68.63 290.25 69.08L326.76 107.28C327.67 108.23 329.15 108.23 330.05 107.28L366.57 69.09C367 68.63 367.24 68.02 367.24 67.38Z" fill="#BA0000" fill-opacity="1.000000" fill-rule="evenodd"/>
</svg>
