<svg width="32.000000" height="40.000000" viewBox="0 0 32 40" fill="none" xmlns="http://www.w3.org/2000/svg">
	<path id="path" d="M28.6 18.16L28.6 38.3C28.6 39.24 29.36 40 30.3 40C31.24 40 32 39.24 32 38.3L32 16.7C32 16.49 31.92 16.29 31.78 16.14L16.53 0.23C16.23 -0.08 15.76 -0.08 15.46 0.23L0.21 16.14C0.07 16.29 0 16.49 0 16.7L0 39.41C0 39.73 0.25 40 0.56 40L17.77 40C18.08 40 18.33 39.73 18.33 39.41L18.33 28.78C18.33 28.49 18.5 28.22 18.75 28.09C20.22 27.29 21.22 25.69 21.22 23.84C21.22 22.19 20.42 20.74 19.21 19.88C18.84 19.62 18.33 19.9 18.33 20.37L18.33 24.31C18.33 24.64 18.08 24.9 17.77 24.9L15.51 24.9C15.19 24.9 14.94 24.64 14.94 24.31L14.94 20.37C14.94 19.9 14.44 19.62 14.06 19.88C12.85 20.74 12.06 22.19 12.06 23.84C12.06 25.69 13.06 27.29 14.53 28.09C14.78 28.22 14.94 28.49 14.94 28.78L14.94 35.86C14.94 36.19 14.69 36.45 14.38 36.45L3.95 36.45C3.64 36.45 3.39 36.19 3.39 35.86L3.39 18.16C3.39 17.96 3.47 17.76 3.61 17.61L15.46 5.24C15.76 4.93 16.23 4.93 16.53 5.24L28.38 17.61C28.52 17.76 28.6 17.96 28.6 18.16Z" fill="#BA0000" fill-opacity="1.000000" fill-rule="evenodd"/>
</svg>
