<svg width="16.000000" height="16.000000" viewBox="0 0 16 16" fill="none" xmlns="http://www.w3.org/2000/svg">
	<desc>
			Created with Pixso.
	</desc>
	<defs/>
	<rect id="arrow_top_right" width="16.000000" height="16.000000" fill="#000000" fill-opacity="0"/>
	<path id="Vector 60" d="M11.43 2.79L4.45 2.79C3.75 2.79 3.2 2.24 3.2 1.54C3.2 0.84 3.75 0.29 4.45 0.29L14.45 0.29C15.15 0.29 15.7 0.84 15.7 1.54L15.7 11.54C15.7 12.24 15.15 12.79 14.45 12.79C13.75 12.79 13.2 12.24 13.2 11.54L13.2 4.56L2.4 15.35C1.91 15.85 1.13 15.85 0.64 15.35C0.14 14.86 0.14 14.08 0.64 13.59L11.43 2.79Z" fill="#FFFFFF" fill-opacity="1.000000" fill-rule="evenodd"/>
</svg>
