<svg width="41.000000" height="41.000000" viewBox="0 0 41 41" fill="none" xmlns="http://www.w3.org/2000/svg" xmlns:xlink="http://www.w3.org/1999/xlink">
	<defs/>
	<path id="Union" d="M1.2 40.52C0.99 40.52 0.78 40.49 0.59 40.42C0.56 40.41 0.45 40.37 0.42 40.35C0.24 40.27 0.07 40.15 -0.08 40C-0.23 39.84 -0.35 39.68 -0.44 39.5C-0.45 39.47 -0.5 39.36 -0.51 39.33C-0.57 39.14 -0.61 38.94 -0.61 38.72C-0.61 38.65 -0.59 38.5 -0.58 38.42C-0.57 38.35 -0.55 38.27 -0.53 38.2C-0.51 38.13 -0.45 37.99 -0.42 37.92C-0.39 37.85 -0.35 37.79 -0.3 37.72L1.09 35.64C1.49 35.04 1.78 34.42 1.95 33.76C2.33 32.31 2.14 30.71 1.39 28.94C0.06 25.82 -0.61 22.92 -0.61 20.26C-0.61 17.5 -0.12 14.93 0.85 12.57C0.86 12.54 0.91 12.43 0.92 12.4C1.91 10.04 3.39 7.88 5.36 5.93C7.32 3.98 9.49 2.5 11.86 1.51C11.88 1.5 11.99 1.46 12.02 1.45C14.4 0.48 16.98 0 19.76 0C22.53 0 25.11 0.48 27.49 1.44C27.52 1.46 27.63 1.5 27.66 1.51C30.03 2.5 32.19 3.98 34.16 5.93C36.12 7.89 37.61 10.05 38.6 12.41C38.61 12.43 38.65 12.54 38.66 12.56C39.64 14.93 40.12 17.5 40.12 20.26C40.12 23 39.64 25.55 38.68 27.91C38.66 27.95 38.61 28.08 38.59 28.12C37.6 30.48 36.12 32.63 34.16 34.59C32.19 36.54 30.03 38.01 27.66 39C27.63 39.01 27.52 39.06 27.49 39.07C25.11 40.04 22.53 40.52 19.76 40.52L1.2 40.52ZM19.76 36.92C22.07 36.92 24.21 36.52 26.19 35.7C28.16 34.89 29.96 33.67 31.6 32.04C33.24 30.41 34.46 28.62 35.28 26.66C36.1 24.69 36.5 22.56 36.5 20.26C36.5 17.96 36.1 15.82 35.28 13.86C34.46 11.9 33.24 10.1 31.6 8.48C29.96 6.85 28.16 5.63 26.19 4.81C24.21 4 22.07 3.6 19.76 3.6C17.44 3.6 15.3 4 13.33 4.81C11.36 5.63 9.55 6.85 7.91 8.48C6.28 10.1 5.05 11.9 4.23 13.86C3.42 15.82 3.01 17.96 3.01 20.26C3.01 22.44 3.58 24.86 4.72 27.54C5.72 29.88 6.01 32.09 5.59 34.15C5.58 34.19 5.55 34.31 5.54 34.35C5.34 35.24 5.01 36.09 4.54 36.92L19.76 36.92ZM28 14.36C28.27 14.36 28.52 14.4 28.74 14.5C28.94 14.59 29.12 14.71 29.29 14.88C29.45 15.04 29.58 15.22 29.66 15.42C29.76 15.65 29.81 15.89 29.81 16.16C29.81 16.42 29.76 16.67 29.66 16.89C29.58 17.09 29.45 17.27 29.29 17.43C29.12 17.6 28.94 17.72 28.74 17.81C28.52 17.91 28.27 17.96 28 17.96L11.51 17.96C10.91 17.96 10.45 17.81 10.15 17.51C9.85 17.21 9.7 16.76 9.7 16.16C9.7 15.89 9.75 15.65 9.85 15.42C9.93 15.22 10.06 15.04 10.23 14.88C10.39 14.71 10.57 14.59 10.77 14.5C11 14.4 11.24 14.36 11.51 14.36L28 14.36ZM11.51 22.56L19.76 22.56C20.36 22.56 20.81 22.71 21.11 23.01C21.41 23.31 21.56 23.76 21.56 24.36C21.56 24.96 21.41 25.41 21.11 25.71C20.81 26.01 20.36 26.16 19.76 26.16L11.51 26.16C10.91 26.16 10.45 26.01 10.15 25.71C9.85 25.41 9.7 24.96 9.7 24.36C9.7 24.1 9.75 23.85 9.85 23.63C9.93 23.43 10.06 23.25 10.23 23.09C10.39 22.92 10.57 22.8 10.77 22.71C11 22.61 11.24 22.56 11.51 22.56Z" fill="#2A4494" fill-opacity="1.000000" fill-rule="evenodd"/>
</svg>
