<svg width="40.000000" height="50.000000" viewBox="0 0 40 50" fill="none" xmlns="http://www.w3.org/2000/svg" xmlns:xlink="http://www.w3.org/1999/xlink">
	<desc>
			Created with Pixso.
	</desc>
	<defs/>
	<path id="path" d="M35.75 22.7L35.75 47.87C35.75 49.05 36.7 50 37.87 50C39.05 50 40 49.05 40 47.87L40 20.87C40 20.61 39.9 20.36 39.72 20.18L20.66 0.28C20.29 -0.1 19.7 -0.1 19.33 0.28L0.27 20.18C0.09 20.36 0 20.61 0 20.87L0 49.26C0 49.66 0.31 50 0.7 50L22.21 50C22.6 50 22.92 49.67 22.92 49.26L22.92 35.98C22.92 35.61 23.12 35.28 23.43 35.11C25.27 34.11 26.53 32.11 26.53 29.8C26.53 27.74 25.53 25.93 24.02 24.85C23.55 24.52 22.92 24.88 22.92 25.47L22.92 30.39C22.92 30.8 22.6 31.13 22.21 31.13L19.38 31.13C18.99 31.13 18.68 30.8 18.68 30.39L18.68 25.47C18.68 24.88 18.05 24.52 17.58 24.85C16.07 25.93 15.07 27.74 15.07 29.8C15.07 32.11 16.33 34.11 18.16 35.11C18.48 35.28 18.68 35.61 18.68 35.98L18.68 44.83C18.68 45.24 18.36 45.57 17.97 45.57L4.94 45.57C4.55 45.57 4.24 45.24 4.24 44.83L4.24 22.71C4.24 22.45 4.34 22.2 4.51 22.02L19.33 6.55C19.7 6.16 20.29 6.16 20.66 6.55L35.48 22.01C35.65 22.2 35.75 22.45 35.75 22.7Z" fill="#2A4494" fill-opacity="1.000000" fill-rule="evenodd"/>
</svg>
